<svg xmlns="http://www.w3.org/2000/svg" xmlns:xlink="http://www.w3.org/1999/xlink" x="0" y="0" width="567" height="328.65625" style="
        width:567px;
        height:328.65625px;
        background: #FFF;
        fill: none;
">
        
        
        <svg xmlns="http://www.w3.org/2000/svg" class="role-diagram-draw-area"><g class="shapes-region" style="stroke: black; fill: none;"><g class="composite-shape"><path class="real" d=" M314.5,236.68 L314.5,302.33 C314.5,312.09 297.14,320 275.72,320 C254.3,320 236.93,312.09 236.93,302.33 L236.93,236.68 M314.5,236.68 C314.5,246.44 297.14,254.35 275.72,254.35 C254.3,254.35 236.93,246.44 236.93,236.68 C236.93,226.91 254.3,219 275.72,219 C297.14,219 314.5,226.91 314.5,236.68 Z" style="stroke-width: 1px; stroke: rgb(0, 0, 0); fill: rgb(255, 204, 128); fill-opacity: 1;"/></g><g class="composite-shape"><path class="real" d=" M396.5,283 L396.5,247.25 L411.5,239 L476.5,239 L476.5,283 Z" style="stroke-width: 1px; stroke: rgb(0, 0, 0); fill: rgb(255, 204, 128); fill-opacity: 1;"/></g><g class="arrow-line"><path class="connection real" stroke-dasharray="" d="  M274.5,172 L274.5,217" style="stroke: rgb(0, 0, 0); stroke-width: 1px; fill: none; fill-opacity: 1;"/><g stroke="none" fill="#000" transform="matrix(-1.8369701987210297e-16,-1,1,-1.8369701987210297e-16,274.5,220)" style="stroke: none; fill: rgb(0, 0, 0); stroke-width: 1px;"><path d=" M8.93,-4.29 L0,0 L8.93,4.29 Z"/></g></g><g class="arrow-line"><path class="connection real" stroke-dasharray="" d="  M436.5,180 L436.5,238" style="stroke: rgb(0, 0, 0); stroke-width: 1px; fill: none; fill-opacity: 1;"/><g stroke="none" fill="#000" transform="matrix(-1.8369701987210297e-16,-1,1,-1.8369701987210297e-16,436.5,240.99999999999994)" style="stroke: none; fill: rgb(0, 0, 0); stroke-width: 1px;"><path d=" M8.93,-4.29 L0,0 L8.93,4.29 Z"/></g></g><g/></g><g><g class="connection-group"><g class="arrow-line"><path class="connection real" stroke-dasharray="" d="  M398.42,142 L310.39,142" style="stroke: rgb(0, 0, 0); stroke-width: 1px; fill: none; fill-opacity: 1;"/><g stroke="none" fill="#000" transform="matrix(1,-2.4492935982947064e-16,2.4492935982947064e-16,1,307.386890422961,142)" style="stroke: none; fill: rgb(0, 0, 0); stroke-width: 1px;"><path d=" M8.93,-4.29 L0,0 L8.93,4.29 Z"/></g></g></g><g class="connection-group"><g class="arrow-line"><path class="connection real" stroke-dasharray="" d="  M135.1,56 L116.21,122.61" style="stroke: rgb(0, 0, 0); stroke-width: 1px; fill: none; fill-opacity: 1;"/><g stroke="none" fill="#000" transform="matrix(0.27278402585723677,-0.9620752960330695,0.9620752960330695,0.27278402585723677,115.39432989690721,125.5)" style="stroke: none; fill: rgb(0, 0, 0); stroke-width: 1px;"><path d=" M8.93,-4.29 L0,0 L8.93,4.29 Z"/></g></g></g><g class="connection-group"><g class="arrow-line"><path class="connection real" stroke-dasharray="" d="  M155.4,56 L248.87,122.38" style="stroke: rgb(0, 0, 0); stroke-width: 1px; fill: none; fill-opacity: 1;"/><g stroke="none" fill="#000" transform="matrix(-0.8153299533390672,-0.5789966037794302,0.5789966037794302,-0.8153299533390672,251.3150717315727,124.11505093981248)" style="stroke: none; fill: rgb(0, 0, 0); stroke-width: 1px;"><path d=" M8.93,-4.29 L0,0 L8.93,4.29 Z"/></g></g></g><g class="connection-group"><g class="arrow-line"><path class="connection real" stroke-dasharray="" d="  M436.5,56 L436.5,100.92" style="stroke: rgb(0, 0, 0); stroke-width: 1px; fill: none; fill-opacity: 1;"/><g stroke="none" fill="#000" transform="matrix(-1.8369701987210297e-16,-1,1,-1.8369701987210297e-16,436.5,103.9211344706805)" style="stroke: none; fill: rgb(0, 0, 0); stroke-width: 1px;"><path d=" M8.93,-4.29 L0,0 L8.93,4.29 Z"/></g></g></g></g><g><g><circle cx="436.5" cy="142" r="38.07886552931954" style="stroke: rgb(0, 0, 0); stroke-width: 1px; fill: rgb(166, 255, 128); fill-opacity: 1;"/></g><g><circle cx="276.5" cy="142" r="30.886890422961002" style="stroke: rgb(0, 0, 0); stroke-width: 1px; fill: rgb(166, 255, 128); fill-opacity: 1;"/></g><g><rect rx="0" ry="0" x="53" y="125.5" width="116" height="31" style="stroke: rgb(0, 0, 0); stroke-width: 1px; fill: rgb(166, 255, 128); fill-opacity: 1;"/></g><g><rect rx="0" ry="0" x="44" y="246.5" width="100" height="22" style="stroke: rgb(0, 0, 0); stroke-width: 1px; fill: rgb(166, 255, 128); fill-opacity: 1;"/></g><g><rect rx="0" ry="0" x="44" y="270.5" width="100" height="24" style="stroke: rgb(0, 0, 0); stroke-width: 1px; fill: rgb(255, 204, 128); fill-opacity: 1;"/></g><g><rect rx="0" ry="0" x="44" y="222.5" width="100" height="22" style="stroke: rgb(0, 0, 0); stroke-width: 1px; fill: rgb(255, 255, 255); fill-opacity: 1;"/></g><g><rect rx="0" ry="0" x="324" y="6.5" width="226" height="24" style="stroke: rgb(255, 255, 255); stroke-opacity: 1; stroke-width: 1px; fill: rgb(255, 255, 255); fill-opacity: 1;"/></g><g><rect rx="0" ry="0" x="16.5" y="6" width="252" height="24" style="stroke: none; stroke-opacity: 1; stroke-width: 1px; fill: rgb(255, 255, 255); fill-opacity: 1;"/></g><g><rect rx="0" ry="0" x="80.5" y="32" width="116" height="24" style="stroke: rgb(0, 0, 0); stroke-width: 1px; fill: rgb(255, 255, 255); fill-opacity: 1;"/></g><g><rect rx="0" ry="0" x="378.5" y="32" width="116" height="24" style="stroke: rgb(0, 0, 0); stroke-width: 1px; fill: rgb(255, 255, 255); fill-opacity: 1;"/></g></g><g/></svg>
        <svg xmlns="http://www.w3.org/2000/svg" xmlns:xlink="http://www.w3.org/1999/xlink" width="565" height="326.65625" style="width:565px;height:326.65625px;font-family:Asana-Math, Asana;background:#FFF;"><g><g><g><text x="412.72509765625" y="133" style="white-space:pre;stroke:none;fill:rgb(0,0,0);fill-opacity:1;font-size:15px;font-family:Arial, Helvetica, sans-serif;font-weight:normal;font-style:normal;dominant-baseline:text-before-edge;text-decoration:none;">Django</text></g></g></g><g><g><g><text x="253.563720703125" y="133" style="white-space:pre;stroke:none;fill:rgb(0,0,0);fill-opacity:1;font-size:15px;font-family:Arial, Helvetica, sans-serif;font-weight:normal;font-style:normal;dominant-baseline:text-before-edge;text-decoration:none;">SQLite</text></g></g></g><g><g><g><text x="79.72509765625" y="132.5" style="white-space:pre;stroke:none;fill:rgb(0,0,0);fill-opacity:1;font-size:15px;font-family:Arial, Helvetica, sans-serif;font-weight:normal;font-style:normal;dominant-baseline:text-before-edge;text-decoration:none;">Selenium</text></g></g></g><g><g><g><text x="409.535400390625" y="251.5" style="white-space:pre;stroke:none;fill:rgb(0,0,0);fill-opacity:1;font-size:15px;font-family:Arial, Helvetica, sans-serif;font-weight:normal;font-style:normal;dominant-baseline:text-before-edge;text-decoration:none;">Website</text></g></g></g><g><g><g><text x="243.316162109375" y="267" style="white-space:pre;stroke:none;fill:rgb(0,0,0);fill-opacity:1;font-size:15px;font-family:Arial, Helvetica, sans-serif;font-weight:normal;font-style:normal;dominant-baseline:text-before-edge;text-decoration:none;">Database</text></g></g></g><g><g><g><text x="71.9892578125" y="252.1875" style="white-space:pre;stroke:none;fill:rgb(0,0,0);fill-opacity:1;font-size:12.149999618530273px;font-family:Arial, Helvetica, sans-serif;font-weight:normal;font-style:normal;dominant-baseline:text-before-edge;text-decoration:none;">External</text></g></g></g><g><g><g><text x="60.9130859375" y="274.1875" style="white-space:pre;stroke:none;fill:rgb(0,0,0);fill-opacity:1;font-size:13.5px;font-family:Arial, Helvetica, sans-serif;font-weight:normal;font-style:normal;dominant-baseline:text-before-edge;text-decoration:none;">Generated</text></g></g></g><g><g><g><text x="70.64404296875" y="226.1875" style="white-space:pre;stroke:none;fill:rgb(0,0,0);fill-opacity:1;font-size:13.5px;font-family:Arial, Helvetica, sans-serif;font-weight:normal;font-style:normal;dominant-baseline:text-before-edge;text-decoration:none;">Internal</text></g></g></g><g><g><g><text x="328.0009765625" y="10.5" style="white-space:pre;stroke:none;fill:rgb(0,0,0);fill-opacity:1;font-size:13.5px;font-family:&quot;Courier New&quot;, Courier, monospace;font-weight:normal;font-style:normal;dominant-baseline:text-before-edge;text-decoration:none;">python manage.py runserver</text></g></g></g><g><g><g><text x="20.50048828125" y="10" style="white-space:pre;stroke:none;fill:rgb(0,0,0);fill-opacity:1;font-size:13.5px;font-family:&quot;Courier New&quot;, Courier, monospace;font-weight:normal;font-style:normal;dominant-baseline:text-before-edge;text-decoration:none;">python manage.py runscheduler</text></g></g></g><g><g><g><text x="89.07958984375" y="35.6875" style="white-space:pre;stroke:none;fill:rgb(0,0,0);fill-opacity:1;font-size:13.5px;font-family:Arial, Helvetica, sans-serif;font-weight:normal;font-style:normal;dominant-baseline:text-before-edge;text-decoration:none;">runscheduler.py</text></g></g></g><g transform="matrix(0.29954039030902946,-0.9540836203255532,0.9540836203255532,0.29954039030902946,-0.691640064781609,171.55792932548937)"><g><g><text x="101.703125" y="77.75" style="white-space:pre;stroke:none;fill:rgb(0,0,0);fill-opacity:1;font-size:13.5px;font-family:Arial, Helvetica, sans-serif;font-weight:normal;font-style:normal;dominant-baseline:text-before-edge;text-decoration:none;">uses</text></g></g></g><g transform="matrix(0.8384804019666345,0.5449317530827791,-0.5449317530827791,0.8384804019666345,79.08368004084974,-102.99851816508709)"><g><g><text x="198.5" y="73.40625" style="white-space:pre;stroke:none;fill:rgb(0,0,0);fill-opacity:1;font-size:13.5px;font-family:Arial, Helvetica, sans-serif;font-weight:normal;font-style:normal;dominant-baseline:text-before-edge;text-decoration:none;">uses</text></g></g></g><g><g><g><text x="401.86572265625" y="35.6875" style="white-space:pre;stroke:none;fill:rgb(0,0,0);fill-opacity:1;font-size:13.5px;font-family:Arial, Helvetica, sans-serif;font-weight:normal;font-style:normal;dominant-baseline:text-before-edge;text-decoration:none;">manage.py</text></g></g></g></svg>
</svg>
